<?xml version="1.0" encoding="UTF-8"?>
<svg version="1.1" xmlns="http://www.w3.org/2000/svg" width="500" height="500">
<path d="M0 0 C30.36 0 60.72 0 92 0 C92.01458252 9.26626465 92.02916504 18.5325293 92.04418945 28.07958984 C92.09301787 57.77814039 92.15644658 87.47664387 92.22898628 117.17514559 C92.24025352 121.79352127 92.25139212 126.41189725 92.26245117 131.03027344 C92.26465486 131.94965181 92.26685854 132.86903019 92.269129 133.81626852 C92.30443534 148.67387717 92.32933701 163.53148578 92.35034702 178.38912074 C92.37216229 193.65118854 92.40526672 208.91320223 92.44870156 224.17522395 C92.47511995 233.58149161 92.49288743 242.98769193 92.49934604 252.39399482 C92.50463011 258.85718674 92.52094738 265.32029417 92.54566566 271.78344069 C92.55957806 275.50410128 92.56889042 279.22461098 92.56500816 282.94529915 C92.54996155 301.03517954 92.59119414 318.97748854 98.6875 336.25 C98.94313721 336.98686035 99.19877441 337.7237207 99.4621582 338.48291016 C104.26891596 351.74125182 112.16216408 365.46399078 124.3359375 373.2109375 C125.21507812 373.80132812 126.09421875 374.39171875 127 375 C127 375.66 127 376.32 127 377 C128.2065625 377.3403125 128.2065625 377.3403125 129.4375 377.6875 C132.30131112 378.74258831 134.22423724 379.72829377 136.75 381.3125 C141.21533213 383.85766401 145.76777557 385.30596911 150.6875 386.6875 C151.39293945 386.88964111 152.09837891 387.09178223 152.82519531 387.30004883 C165.02132336 390.57241324 177.29460119 391.37564673 189.875 391.3125 C190.57522278 391.31167419 191.27544556 391.31084839 191.99688721 391.30999756 C202.32198991 391.28200028 211.96417337 390.56342954 222 388 C223.76966434 387.70132247 225.54041619 387.40897029 227.3125 387.125 C232.94193485 385.98211138 237.89910203 383.58045427 243 381 C243.7734375 380.6184375 244.546875 380.236875 245.34375 379.84375 C263.09311033 370.59408335 275.43110309 354.22741576 281.60546875 335.36328125 C285.50457898 322.30944193 287.30111338 309.33221501 287.2784729 295.70585632 C287.2871615 293.79646852 287.2871615 293.79646852 287.29602563 291.84850723 C287.31166526 288.35477585 287.31524734 284.86112523 287.31667423 281.3673631 C287.32039666 277.58498402 287.33556597 273.80264781 287.34928894 270.02029419 C287.37147701 263.48019048 287.3865409 256.9401022 287.39665604 250.3999691 C287.41129098 240.9442398 287.43684107 231.48856428 287.46498732 222.03286669 C287.51036817 206.68867347 287.54701882 191.34447246 287.578125 176.00024414 C287.60834631 161.10179276 287.64271294 146.20336037 287.68261719 131.30493164 C287.68507874 130.38536541 287.68754028 129.46579918 287.69007643 128.51836731 C287.70245172 123.90480736 287.71490812 119.29124763 287.72740483 114.677688 C287.83084216 76.4518145 287.91847009 38.22592774 288 0 C318.36 0 348.72 0 380 0 C380.02209651 37.53789495 380.04054093 75.0757837 380.05106533 112.61368331 C380.05231585 117.05780386 380.05361019 121.50192439 380.05493164 125.94604492 C380.05532511 127.27301308 380.05532511 127.27301308 380.05572652 128.62678868 C380.06006321 142.90092518 380.06793963 157.1750576 380.0771528 171.44919168 C380.08654521 186.1247832 380.09206738 200.80037259 380.09408849 215.47596699 C380.09545218 224.51215959 380.09973954 233.54834066 380.10791647 242.58452971 C380.11325305 248.8033755 380.1147888 255.02221544 380.11350138 261.24106335 C380.11286865 264.81471356 380.11375175 268.38834381 380.11920547 271.96199036 C380.1917417 322.09012205 377.71219626 372.61037296 346 414 C345.34 414.99 344.68 415.98 344 417 C343.34 417 342.68 417 342 417 C341.731875 417.58265625 341.46375 418.1653125 341.1875 418.765625 C339.98519009 421.02786601 338.66174087 422.80576318 337 424.75 C336.484375 425.36359375 335.96875 425.9771875 335.4375 426.609375 C334 428 334 428 332 428 C332 428.66 332 429.32 332 430 C328.53190091 433.23331482 324.73698345 436.08515291 321 439 C320.113125 439.70125 319.22625 440.4025 318.3125 441.125 C311.32691717 446.44734882 303.934858 450.28135368 296 454 C294.87980469 454.54914063 293.75960938 455.09828125 292.60546875 455.6640625 C286.73721599 458.490291 281.07986121 460.77783848 274.73046875 462.26171875 C272.45660308 462.8765408 270.38304746 463.60251006 268.1953125 464.45703125 C264.08617921 466.02518616 259.98852142 467.09951197 255.6875 468 C254.88844238 468.16733643 254.08938477 468.33467285 253.26611328 468.50708008 C236.16652943 471.88992895 218.42623653 473.52560155 201 474 C199.81470703 474.03287109 199.81470703 474.03287109 198.60546875 474.06640625 C163.6021571 474.87293417 126.28913437 472.25394245 93.82421875 458.20703125 C91.27963457 457.11951187 88.71917749 456.14814974 86.125 455.1875 C74.66881233 450.59768122 64.59184462 443.6649748 55 436 C54.24074219 435.39542969 53.48148438 434.79085938 52.69921875 434.16796875 C51.08307269 432.83683442 49.53181424 431.42737236 48 430 C48 429.34 48 428.68 48 428 C47.40703125 427.7421875 46.8140625 427.484375 46.203125 427.21875 C43.82339035 425.90230105 42.49021208 424.57419218 40.75 422.5 C40.22921875 421.8915625 39.7084375 421.283125 39.171875 420.65625 C38 419 38 419 38 417 C37.34 417 36.68 417 36 417 C34.35448901 415.01498768 32.85536572 413.04182152 31.375 410.9375 C30.9305957 410.3084375 30.48619141 409.679375 30.02832031 409.03125 C2.22064226 368.82258167 -0.18679403 321.11856886 -0.11606562 273.91457343 C-0.11167461 270.22440088 -0.11321356 266.53422961 -0.1139679 262.84405518 C-0.11448774 256.47762247 -0.11139791 250.11120015 -0.10573006 243.74477005 C-0.09754109 234.54041629 -0.09499233 225.33606746 -0.09374207 216.13171045 C-0.09156306 201.19180804 -0.08493445 186.25191114 -0.07543945 171.31201172 C-0.06623537 156.81461616 -0.05916926 142.31722211 -0.05493164 127.81982422 C-0.05466892 126.92353147 -0.05440619 126.02723872 -0.05413551 125.10378559 C-0.0528303 120.60655004 -0.05156664 116.10931447 -0.05032361 111.61207891 C-0.03998689 74.4080477 -0.02156813 37.20402672 0 0 Z " fill="#322D6F" transform="translate(60,16)"/>
<path d="M0 0 C13.2 0 26.4 0 40 0 C40 25.41 40 50.82 40 77 C40.99 77 41.98 77 43 77 C43.66 75.35 44.32 73.7 45 72 C45.66 72 46.32 72 47 72 C47.2371875 71.46890625 47.474375 70.9378125 47.71875 70.390625 C49.37378384 67.30257405 51.40548128 64.5471528 53.5 61.75 C53.90347656 61.19570312 54.30695313 60.64140625 54.72265625 60.0703125 C55.76450171 58.67430835 56.87745412 57.33197608 58 56 C58.66 56 59.32 56 60 56 C60.2774707 55.40791748 60.55494141 54.81583496 60.84082031 54.20581055 C61.92753123 52.13790129 63.06775926 50.50558672 64.546875 48.70703125 C65.05573242 48.0845752 65.56458984 47.46211914 66.08886719 46.82080078 C66.63704102 46.15806152 67.18521484 45.49532227 67.75 44.8125 C68.59933105 43.77585205 68.59933105 43.77585205 69.46582031 42.71826172 C72.6119606 38.88245028 75.77580443 35.06127205 78.9375 31.23828125 C79.89317871 30.08138794 79.89317871 30.08138794 80.86816406 28.90112305 C82.10752469 27.40208839 83.34900985 25.90480732 84.59277344 24.40942383 C85.15512695 23.73032959 85.71748047 23.05123535 86.296875 22.3515625 C86.79541992 21.75166504 87.29396484 21.15176758 87.80761719 20.53369141 C89.08394534 18.9953773 89.08394534 18.9953773 90 17 C90.66 17 91.32 17 92 17 C92.226875 16.484375 92.45375 15.96875 92.6875 15.4375 C94.48217618 12.10452995 96.49965015 8.85296329 99 6 C99.66 6 100.32 6 101 6 C101.28875 5.38125 101.5775 4.7625 101.875 4.125 C103 2 103 2 105 0 C108.01308951 -0.17546482 110.93310454 -0.23127445 113.9453125 -0.1953125 C115.27283035 -0.19106766 115.27283035 -0.19106766 116.62716675 -0.18673706 C119.45991412 -0.1755224 122.29234784 -0.1504157 125.125 -0.125 C127.04296419 -0.11497185 128.96093333 -0.10584572 130.87890625 -0.09765625 C135.58605876 -0.07557889 140.29297616 -0.04104045 145 0 C145.17041016 4.75439453 145.17041016 4.75439453 143.63671875 6.96484375 C142.99347656 7.61582031 142.35023438 8.26679688 141.6875 8.9375 C137.92885995 12.92475143 134.49159032 17.05830164 131.125 21.375 C130.64893311 21.98206787 130.17286621 22.58913574 129.68237305 23.21459961 C127.69578952 25.76165678 125.79259819 28.31110272 124 31 C123.34 31 122.68 31 122 31 C121.773125 31.515625 121.54625 32.03125 121.3125 32.5625 C119.51782382 35.89547005 117.50034985 39.14703671 115 42 C114.34 42 113.68 42 113 42 C112.7525 42.721875 112.505 43.44375 112.25 44.1875 C110.87730408 47.27606582 109.27646704 49.51011418 107 52 C106.34 52 105.68 52 105 52 C104.7628125 52.53109375 104.525625 53.0621875 104.28125 53.609375 C102.62621616 56.69742595 100.59451872 59.4528472 98.5 62.25 C97.89478516 63.08144531 97.89478516 63.08144531 97.27734375 63.9296875 C96.23549829 65.32569165 95.12254588 66.66802392 94 68 C93.34 68 92.68 68 92 68 C91.773125 68.515625 91.54625 69.03125 91.3125 69.5625 C89.51782382 72.89547005 87.50034985 76.14703671 85 79 C84.34 79 83.68 79 83 79 C82.62875 79.7734375 82.62875 79.7734375 82.25 80.5625 C81 83 81 83 79.90625 84.6484375 C78.5474643 86.67442909 78.5474643 86.67442909 77 90 C77.58754454 92.89483819 77.58754454 92.89483819 79 95 C79.66 95 80.32 95 81 95 C82.5078125 96.6796875 82.5078125 96.6796875 84.125 98.875 C84.66382813 99.59429687 85.20265625 100.31359375 85.7578125 101.0546875 C87 103 87 103 87 105 C87.66 105 88.32 105 89 105 C90.58428311 106.86153265 92.04898223 108.72548612 93.5 110.6875 C94.39285963 111.87527788 95.28610051 113.06276924 96.1796875 114.25 C96.64084961 114.86617188 97.10201172 115.48234375 97.57714844 116.1171875 C98.99261583 117.99022878 100.43226544 119.84152849 101.8828125 121.6875 C102.34236328 122.27442627 102.80191406 122.86135254 103.27539062 123.46606445 C104.16425656 124.59981874 105.05611461 125.73123457 105.95117188 126.86010742 C109 130.77608413 109 130.77608413 109 133 C109.66 133 110.32 133 111 133 C111 133.66 111 134.32 111 135 C111.66 135 112.32 135 113 135 C113.99 137.475 113.99 137.475 115 140 C115.66 140 116.32 140 117 140 C118.63139937 141.92587579 120.13723225 143.84326717 121.625 145.875 C122.04523438 146.43058594 122.46546875 146.98617187 122.8984375 147.55859375 C126 151.73764712 126 151.73764712 126 154 C126.66 154 127.32 154 128 154 C128.99 156.475 128.99 156.475 130 159 C130.66 159 131.32 159 132 159 C133.3671875 160.57421875 133.3671875 160.57421875 134.875 162.6875 C136.65548472 165.15312222 138.43568293 167.52740566 140.375 169.875 C142 172 142 172 142 174 C142.66 174 143.32 174 144 174 C145.9453125 176.01171875 145.9453125 176.01171875 148.125 178.6875 C149.21167969 179.99267578 149.21167969 179.99267578 150.3203125 181.32421875 C152.14837402 184.23636327 152.45977003 185.63424762 152 189 C151 190 151 190 149.24729919 190.12025452 C148.48562943 190.11803391 147.72395966 190.11581329 146.93920898 190.11352539 C146.07839218 190.11344986 145.21757538 190.11337433 144.33067322 190.11329651 C143.39526199 190.10813522 142.45985077 190.10297394 141.49609375 190.09765625 C140.54307877 190.0962413 139.59006378 190.09482635 138.60816956 190.09336853 C135.55124835 190.08775152 132.49439923 190.07519616 129.4375 190.0625 C127.37044376 190.05748719 125.30338638 190.05292391 123.23632812 190.04882812 C118.15752412 190.03777656 113.0787743 190.02050055 108 190 C107.67 189.01 107.34 188.02 107 187 C106.34 187 105.68 187 105 187 C104.01 184.525 104.01 184.525 103 182 C102.34 182 101.68 182 101 182 C100.01 179.525 100.01 179.525 99 177 C98.34 177 97.68 177 97 177 C95.36860063 175.07412421 93.86276775 173.15673283 92.375 171.125 C91.95476562 170.56941406 91.53453125 170.01382813 91.1015625 169.44140625 C88 165.26235288 88 165.26235288 88 163 C87.34 163 86.68 163 86 163 C86 162.34 86 161.68 86 161 C85.34 161 84.68 161 84 161 C83.01 158.525 83.01 158.525 82 156 C81.34 156 80.68 156 80 156 C78.58984375 154.41796875 78.58984375 154.41796875 76.9375 152.1875 C73.35039513 147.41982897 69.56639412 142.84758968 65.72265625 138.28515625 C64 136 64 136 64 134 C63.34 134 62.68 134 62 134 C60.4921875 132.3203125 60.4921875 132.3203125 58.875 130.125 C58.33617187 129.40570313 57.79734375 128.68640625 57.2421875 127.9453125 C56 126 56 126 56 124 C55.34 124 54.68 124 54 124 C52.2734375 122.1015625 52.2734375 122.1015625 50.375 119.625 C49.74335938 118.81289063 49.11171875 118.00078125 48.4609375 117.1640625 C47 115 47 115 47 113 C46.34 113 45.68 113 45 113 C44.34 112.01 43.68 111.02 43 110 C42.01 109.67 41.02 109.34 40 109 C40.00222061 110.00002548 40.00444122 111.00005096 40.00672913 112.03038025 C40.02696068 121.43368339 40.0419722 130.83698215 40.05181217 140.24030209 C40.05704097 145.07516827 40.06413854 149.91001694 40.07543945 154.74487305 C40.08626847 159.4067712 40.09227686 164.06865246 40.09487724 168.73056221 C40.09673147 170.51324288 40.10035203 172.29592259 40.10573006 174.07859612 C40.11294069 176.5666596 40.11399093 179.05465243 40.11352539 181.54272461 C40.11712067 182.28718842 40.12071594 183.03165222 40.12442017 183.79867554 C40.11405216 188.88594784 40.11405216 188.88594784 39 190 C36.20006403 190.10103255 33.42531356 190.13970088 30.625 190.1328125 C29.78533691 190.13376923 28.94567383 190.13472595 28.08056641 190.13571167 C26.30175705 190.13639348 24.52294523 190.13453917 22.74414062 190.13037109 C20.01166224 190.12502283 17.27934824 190.13031605 14.546875 190.13671875 C12.8229163 190.13605797 11.09895771 190.13477681 9.375 190.1328125 C8.55209473 190.13483673 7.72918945 190.13686096 6.88134766 190.13894653 C1.11495054 190.11495054 1.11495054 190.11495054 0 189 C-0.09769053 186.5588998 -0.12996385 184.14612708 -0.12025452 181.70457458 C-0.12110894 180.93192876 -0.12196337 180.15928294 -0.12284368 179.36322361 C-0.12450082 176.75441446 -0.11897331 174.14566854 -0.11352539 171.53686523 C-0.11324354 169.67467246 -0.1134012 167.81247957 -0.1139679 165.95028687 C-0.11425597 160.87818414 -0.10835771 155.80610485 -0.10139394 150.7340076 C-0.09516197 145.43953999 -0.09455673 140.1450719 -0.09336853 134.8506012 C-0.09025475 124.81728576 -0.08204073 114.78398115 -0.07201904 104.75067049 C-0.06085935 93.33127715 -0.05534782 81.91188331 -0.05032361 70.49248588 C-0.03985815 46.99498319 -0.02151209 23.49749536 0 0 Z " fill="#373272" transform="translate(186,143)"/>
<path d="M0 0 C18.315 0.495 18.315 0.495 37 1 C37.495 1.99 37.495 1.99 38 3 C25.46 3 12.92 3 0 3 C0 2.01 0 1.02 0 0 Z " fill="#4B487D" transform="translate(187,330)"/>
<path d="M0 0 C0.66 1.32 1.32 2.64 2 4 C1.01 4.33 0.02 4.66 -1 5 C-1 5.99 -1 6.98 -1 8 C-1.33 8.66 -1.66 9.32 -2 10 C-2.66 10 -3.32 10 -4 10 C-4.226875 10.598125 -4.45375 11.19625 -4.6875 11.8125 C-6.3611297 14.60188284 -8.08817726 15.6168842 -11 17 C-11.66 16.67 -12.32 16.34 -13 16 C-12.39671875 15.34773438 -11.7934375 14.69546875 -11.171875 14.0234375 C-7.06829241 9.53597138 -3.15299809 5.20930119 0 0 Z " fill="#6B6893" transform="translate(333,370)"/>
<path d="M0 0 C0.99 0.495 0.99 0.495 2 1 C2.83311947 3.79669079 3.5447074 6.53464568 4.1875 9.375 C4.37763672 10.15617187 4.56777344 10.93734375 4.76367188 11.7421875 C6.12712566 17.61862301 6.12712566 17.61862301 5 21 C0.58225775 13.87460927 -0.1430617 8.2975788 0 0 Z " fill="#484473" transform="translate(152,332)"/>
<path d="M0 0 C0.66 0.66 1.32 1.32 2 2 C1.34 3.65 0.68 5.3 0 7 C-1.81325551 6.88648483 -3.62563357 6.75887039 -5.4375 6.625 C-6.95150391 6.52058594 -6.95150391 6.52058594 -8.49609375 6.4140625 C-9.32238281 6.27742188 -10.14867187 6.14078125 -11 6 C-11.33 5.34 -11.66 4.68 -12 4 C-11.360625 3.87625 -10.72125 3.7525 -10.0625 3.625 C-9.0415625 3.315625 -9.0415625 3.315625 -8 3 C-7.67 2.34 -7.34 1.68 -7 1 C-6.67 1.66 -6.34 2.32 -6 3 C-2.8684413 2.10232344 -2.8684413 2.10232344 0 0 Z " fill="#454178" transform="translate(206,480)"/>
<path d="M0 0 C1.70884005 1.62339805 3.37446717 3.29319053 5 5 C5 5.66 5 6.32 5 7 C5.66 7 6.32 7 7 7 C8.38938077 8.96147874 9.7260411 10.96166576 11 13 C8.5625 12.625 8.5625 12.625 6 12 C5.67 11.34 5.34 10.68 5 10 C4.154375 9.608125 3.30875 9.21625 2.4375 8.8125 C1.633125 8.214375 0.82875 7.61625 0 7 C-0.3125 3.3125 -0.3125 3.3125 0 0 Z " fill="#5D5987" transform="translate(323,310)"/>
<path d="M0 0 C5.12583611 -0.10251672 9.94997778 -0.03590199 15 1 C15 1.66 15 2.32 15 3 C15.99 3.33 16.98 3.66 18 4 C18 4.33 18 4.66 18 5 C12.87764436 5.37480651 9.63056459 4.10480209 5 2 C2.22111387 1.30859478 2.22111387 1.30859478 0 1 C0 0.67 0 0.34 0 0 Z " fill="#4A4676" transform="translate(157,475)"/>
<path d="M0 0 C6.00230002 -0.48667297 11.31700989 1.30117022 17 3 C17 3.33 17 3.66 17 4 C11.39 4 5.78 4 0 4 C0 2.68 0 1.36 0 0 Z " fill="#54517C" transform="translate(200,401)"/>
<path d="M0 0 C1.32 0.33 2.64 0.66 4 1 C2.68 3.64 1.36 6.28 0 9 C-1.32 8.67 -2.64 8.34 -4 8 C-4 6.02 -4 4.04 -4 2 C-2.35 2 -0.7 2 1 2 C0.67 1.34 0.34 0.68 0 0 Z " fill="#403B78" transform="translate(421,396)"/>
<path d="M0 0 C1.65 0.33 3.3 0.66 5 1 C6.125 4.75 6.125 4.75 5 7 C2.03 6.01 -0.94 5.02 -4 4 C-2.68 3.67 -1.36 3.34 0 3 C0 2.01 0 1.02 0 0 Z " fill="#46407B" transform="translate(145,465)"/>
<path d="M0 0 C1.98 0.99 3.96 1.98 6 3 C4.7260411 5.03833424 3.38938077 7.03852126 2 9 C1.34 9 0.68 9 0 9 C-0.33 9.99 -0.66 10.98 -1 12 C-2.26549993 8.20350022 -1.30826178 6.69391563 0 3 C0 2.01 0 1.02 0 0 Z " fill="#423D74" transform="translate(402,424)"/>
<path d="M0 0 C0.99 0.33 1.98 0.66 3 1 C4.1875 4.0625 4.1875 4.0625 5 7 C3.02 7.66 1.04 8.32 -1 9 C-1 5.72724974 -0.70074844 3.153368 0 0 Z " fill="#3C386E" transform="translate(283,261)"/>
<path d="M0 0 C0.99 0.33 1.98 0.66 3 1 C3 5 3 5 2 7 C1.76725791 9.87910588 1.58027243 12.74146495 1.4375 15.625 C1.39431641 16.42679688 1.35113281 17.22859375 1.30664062 18.0546875 C1.20048543 20.0362511 1.09973145 22.01810271 1 24 C0.67 24 0.34 24 0 24 C0 16.08 0 8.16 0 0 Z " fill="#2D2864" transform="translate(349,17)"/>
<path d="M0 0 C0.66 1.32 1.32 2.64 2 4 C0.35 5.98 -1.3 7.96 -3 10 C-3.99 8.68 -4.98 7.36 -6 6 C-5.34 5.34 -4.68 4.68 -4 4 C-3.01 4 -2.02 4 -1 4 C-0.67 2.68 -0.34 1.36 0 0 Z " fill="#5C5887" transform="translate(398,433)"/>
<path d="M0 0 C3.3 0.33 6.6 0.66 10 1 C9.67 2.32 9.34 3.64 9 5 C8.01 5 7.02 5 6 5 C5.67 5.66 5.34 6.32 5 7 C3.35 4.69 1.7 2.38 0 0 Z " fill="#423C78" transform="translate(259,289)"/>
<path d="M0 0 C1.32 0.66 2.64 1.32 4 2 C2.35 4.64 0.7 7.28 -1 10 C-1.66 8.68 -2.32 7.36 -3 6 C-2.34 5.67 -1.68 5.34 -1 5 C-1 4.01 -1 3.02 -1 2 C-0.67 1.34 -0.34 0.68 0 0 Z " fill="#474379" transform="translate(412,413)"/>
<path d="M0 0 C0.33 0.66 0.66 1.32 1 2 C3.64 1.34 6.28 0.68 9 0 C9 0.66 9 1.32 9 2 C9.66 2.33 10.32 2.66 11 3 C4.565 3.495 4.565 3.495 -2 4 C-2.33 3.34 -2.66 2.68 -3 2 C-2.01 1.34 -1.02 0.68 0 0 Z " fill="#4C487D" transform="translate(286,484)"/>
<path d="M0 0 C1.65 0 3.3 0 5 0 C5.66 1.98 6.32 3.96 7 6 C6.34 6.66 5.68 7.32 5 8 C0 2.25 0 2.25 0 0 Z " fill="#54527E" transform="translate(253,281)"/>
<path d="M0 0 C0.66 0.33 1.32 0.66 2 1 C1.34 4.63 0.68 8.26 0 12 C-2.11688496 7.76623008 -2.19576939 7.23954602 -1 3 C-0.67 2.01 -0.34 1.02 0 0 Z " fill="#434175" transform="translate(430,372)"/>
<path d="M0 0 C0 3.32058331 -0.43061972 5.08543662 -2 8 C-4.625 9.3125 -4.625 9.3125 -7 10 C-2.85714286 2.42857143 -2.85714286 2.42857143 0 0 Z " fill="#69678D" transform="translate(261,179)"/>
<path d="M0 0 C0.99 0.33 1.98 0.66 3 1 C3 1.66 3 2.32 3 3 C3.66 3.33 4.32 3.66 5 4 C1.535 5.485 1.535 5.485 -2 7 C-2 6.01 -2 5.02 -2 4 C-1.34 4 -0.68 4 0 4 C0 2.68 0 1.36 0 0 Z " fill="#4C497F" transform="translate(368,457)"/>
<path d="M0 0 C2.74277578 3.19990508 4.6302836 6.00499382 6 10 C4.125 9.8125 4.125 9.8125 2 9 C0.21715186 5.70173093 0 3.8225249 0 0 Z " fill="#727095" transform="translate(162,363)"/>
<path d="M0 0 C1.32 0.66 2.64 1.32 4 2 C3.67 3.32 3.34 4.64 3 6 C-0.875 4.25 -0.875 4.25 -2 2 C-1.34 2 -0.68 2 0 2 C0 1.34 0 0.68 0 0 Z " fill="#494676" transform="translate(267,241)"/>
<path d="M0 0 C0.66 0 1.32 0 2 0 C0.44499019 3.81684226 -2.03595495 6.19195732 -5 9 C-4.67 7.35 -4.34 5.7 -4 4 C-3.34 4 -2.68 4 -2 4 C-1.34 2.68 -0.68 1.36 0 0 Z " fill="#605D89" transform="translate(324,152)"/>
<path d="M0 0 C0.66 0 1.32 0 2 0 C3.32 2.97 4.64 5.94 6 9 C5.34 9.66 4.68 10.32 4 11 C3.32880451 9.5437455 2.66318193 8.08492133 2 6.625 C1.62875 5.81289063 1.2575 5.00078125 0.875 4.1640625 C0 2 0 2 0 0 Z " fill="#47416F" transform="translate(74,393)"/>
<path d="M0 0 C1.32 0.33 2.64 0.66 4 1 C-1.14285714 5.42857143 -1.14285714 5.42857143 -5 6 C-3.35 4.02 -1.7 2.04 0 0 Z " fill="#514D7E" transform="translate(325,381)"/>
<path d="M0 0 C0.66 0.33 1.32 0.66 2 1 C1.37240135 3.92879371 0.41377341 6.36095629 -1 9 C-1.33 9 -1.66 9 -2 9 C-2 6.69 -2 4.38 -2 2 C-1.34 2 -0.68 2 0 2 C0 1.34 0 0.68 0 0 Z " fill="#3F3B6F" transform="translate(348,330)"/>
<path d="M0 0 C1 3 1 3 1 5 C0.34 5 -0.32 5 -1 5 C-1.33 5.66 -1.66 6.32 -2 7 C-2.99 6.67 -3.98 6.34 -5 6 C-3.35 4.02 -1.7 2.04 0 0 Z " fill="#575484" transform="translate(253,189)"/>
<path d="M0 0 C1.32 0.66 2.64 1.32 4 2 C3.01 3.485 3.01 3.485 2 5 C-1.125 5.1875 -1.125 5.1875 -4 5 C-4 4.34 -4 3.68 -4 3 C-2.68 3 -1.36 3 0 3 C0 2.01 0 1.02 0 0 Z " fill="#413D7B" transform="translate(252,272)"/>
<path d="M0 0 C0.6875 1.8125 0.6875 1.8125 1 4 C-0.4375 5.75 -0.4375 5.75 -2 7 C-2.99 6.67 -3.98 6.34 -5 6 C-3.35 4.02 -1.7 2.04 0 0 Z " fill="#6E6B92" transform="translate(274,163)"/>
<path d="M0 0 C0 2.64779693 -0.17195931 4.51587793 -1 7 C-1.99 7.495 -1.99 7.495 -3 8 C-3.66 7.34 -4.32 6.68 -5 6 C-3.35 4.02 -1.7 2.04 0 0 Z " fill="#67658D" transform="translate(283,152)"/>
<path d="M0 0 C2.64 0.33 5.28 0.66 8 1 C8 1.33 8 1.66 8 2 C5.03 2.66 2.06 3.32 -1 4 C-0.67 2.68 -0.34 1.36 0 0 Z " fill="#534F80" transform="translate(335,474)"/>
<path d="M0 0 C1.88391785 3.26545761 2.49287967 6.28111761 3 10 C0.9375 8.375 0.9375 8.375 -1 6 C-0.75 2.75 -0.75 2.75 0 0 Z " fill="#5E5C89" transform="translate(155,343)"/>
</svg>
